# xmcd CD database file
#
# Track frame offsets:
#	150
#	13054
#	26695
#	39614
#	62976
#	77379
#	88626
#	108053
#	135129
#	157336
#	170069
#	188132
#	208310
#	236378
#	256178
#	269375
#	297799
#	316032
#
# Disc length: 4392 seconds
#
# Revision: 0
# Processed by: cddbd v1.5.1PL2 Copyright (c) Steve Scherf et al.
# Submitted via: CDex 1.51
#
DISCID=f0112612
DTITLE=Louie Ramirez - Latin Soul
DYEAR=1900
DGENRE=Salsa
TTITLE0=Yaoco
TTITLE1=Its not what you say
TTITLE2=chin chon chow
TTITLE3=luisito mozambique
TTITLE4=times are changing
TTITLE5=cookin with a&j
TTITLE6=azucar en nueva york
TTITLE7=barrion nuevo
TTITLE8=the oracle
TTITLE9=violents guaguanco
TTITLE10=i dig rythm
TTITLE11=la flauta
TTITLE12=rush hour in hong kong
TTITLE13=descarga a&j
TTITLE14=don maceo
TTITLE15=vitamina
TTITLE16=fat papas descarga
TTITLE17=sids groove
EXTD=
EXTT0=
EXTT1=
EXTT2=
EXTT3=
EXTT4=
EXTT5=
EXTT6=
EXTT7=
EXTT8=
EXTT9=
EXTT10=
EXTT11=
EXTT12=
EXTT13=
EXTT14=
EXTT15=
EXTT16=
EXTT17=
PLAYORDER=
